<svg xmlns="http://www.w3.org/2000/svg" viewBox="0 0 143.97 46.77"><title>Zafari_Logo_01-01</title><path d="M12.43,39.78H24.58v6.33H0L12.32,28.18H6.66a4.82,4.82,0,0,1-3.53-1.47,5.22,5.22,0,0,1-1.47-3.86V19.52H7.49v.78c0,.74.12,1.18.36,1.33a3.36,3.36,0,0,0,1.53.22H24.75Z" fill="#fff"/><path d="M47.56,36.78V30.84A5.74,5.74,0,0,0,45.26,28,7,7,0,0,0,41.4,27,5.81,5.81,0,0,0,37,28.85a6.64,6.64,0,0,0-1.8,4.77,6.9,6.9,0,0,0,.89,3.47,6.52,6.52,0,0,0,2.36,2.47,6.07,6.07,0,0,0,3.19.89,6.15,6.15,0,0,0,5.88-3.67m7.77-14.93V46.11H47.56v-3a10.88,10.88,0,0,1-8.1,3.66,12.07,12.07,0,0,1-8.74-3.22Q27.36,40.34,27.36,34A14.39,14.39,0,0,1,29,27a12.1,12.1,0,0,1,4.35-4.69,11,11,0,0,1,5.83-1.67,11.32,11.32,0,0,1,5.1,1,10.48,10.48,0,0,1,3.33,2.75l.5-2.5Z" fill="#fff"/><path d="M63.43,28.62H59.32V21.74h4.11V13.31a10.93,10.93,0,0,1,2.8-7.85q2.8-3,7.91-3a13.6,13.6,0,0,1,3.55.5A10,10,0,0,1,81,4.48l-3.28,5.61A3.33,3.33,0,0,0,75,8.87,3.49,3.49,0,0,0,72.23,10a5.15,5.15,0,0,0-1,3.5v8.21h7.33v6.88H71.2V46.11H63.43Z" fill="#fff"/><path d="M100.7,36.78V30.84A5.76,5.76,0,0,0,98.39,28,7,7,0,0,0,94.54,27a5.79,5.79,0,0,0-4.36,1.89,6.64,6.64,0,0,0-1.8,4.77,7,7,0,0,0,.88,3.47,6.67,6.67,0,0,0,2.36,2.47,6.1,6.1,0,0,0,3.19.89,6.16,6.16,0,0,0,5.89-3.67m7.77-14.93V46.11H100.7v-3a10.9,10.9,0,0,1-8.11,3.66,12.09,12.09,0,0,1-8.74-3.22Q80.49,40.34,80.5,34a14.5,14.5,0,0,1,1.63-7,12.13,12.13,0,0,1,4.36-4.69,11,11,0,0,1,5.83-1.67,11.35,11.35,0,0,1,5.1,1,10.48,10.48,0,0,1,3.33,2.75l.5-2.5Z" fill="#fff"/><path d="M124.59,23.91a15.07,15.07,0,0,1,3.58-2.42,7.45,7.45,0,0,1,2.88-.86l-.39,7.77a7.22,7.22,0,0,0-.94,0,7.06,7.06,0,0,0-4.11,1.22,8.13,8.13,0,0,0-2.72,3.13,8.76,8.76,0,0,0-.94,3.92v9.49h-7.71V21.85h7l.61,5.55a12,12,0,0,1,2.75-3.49" fill="#fff"/><rect x="134.77" y="21.85" width="7.77" height="24.25" fill="#fff"/><path d="M144,8.31a5.54,5.54,0,1,1-5.54-5.53A5.53,5.53,0,0,1,144,8.31" fill="#00d3b4"/><path d="M50.84,11.71a2.09,2.09,0,0,1-1.55-.62,2.19,2.19,0,0,1-.62-1.62,2.18,2.18,0,0,1,.62-1.6,2.09,2.09,0,0,1,1.55-.62,2,2,0,0,1,1.52.62A2.14,2.14,0,0,1,53,9.47a2.16,2.16,0,0,1-.62,1.62,2.06,2.06,0,0,1-1.53.62Zm0-6.83a4.89,4.89,0,0,0-3.45,1.3A4.28,4.28,0,0,0,46,9.47a4.3,4.3,0,0,0,1.39,3.31,5.16,5.16,0,0,0,6.85,0,4.31,4.31,0,0,0,1.4-3.31,4.29,4.29,0,0,0-1.4-3.29,4.8,4.8,0,0,0-3.4-1.3m-6.59.3H41.49v8.66h2.76ZM42.87.79a1.49,1.49,0,0,0-1.13.47,1.52,1.52,0,0,0-.45,1.1,1.52,1.52,0,0,0,1.58,1.57A1.63,1.63,0,0,0,44,3.49,1.46,1.46,0,0,0,44.5,2.4,1.52,1.52,0,0,0,44,1.29,1.56,1.56,0,0,0,42.87.83ZM34.21,11.73a2,2,0,0,1-1.5-.62,2.25,2.25,0,0,1-.58-1.62,2.26,2.26,0,0,1,.58-1.61,2.09,2.09,0,0,1,3,0,2.25,2.25,0,0,1,.62,1.61,2.18,2.18,0,0,1-.62,1.6,2.07,2.07,0,0,1-1.49.62M39.1,0H36.34V5.83a3.87,3.87,0,0,0-2.69-1,4,4,0,0,0-3,1.3A4.59,4.59,0,0,0,29.4,9.47a4.6,4.6,0,0,0,1.24,3.31,4,4,0,0,0,3,1.3,3.87,3.87,0,0,0,2.69-.95v.69H39.1ZM27.73,5.14H25v4A2.9,2.9,0,0,1,24.5,11a1.6,1.6,0,0,1-1.33.61,1.39,1.39,0,0,1-1.07-.47,1.8,1.8,0,0,1-.41-1.22V5.16H19v5.31a3.65,3.65,0,0,0,.93,2.62,3.19,3.19,0,0,0,2.45,1A3.48,3.48,0,0,0,25,13v.83h2.76ZM14.62,7.33h3.07V5.14H14.62V1.38l-2.76.81V5.14H10.22V7.33h1.64v3.45a3.27,3.27,0,0,0,.88,2.42,3.24,3.24,0,0,0,2.39.88,5,5,0,0,0,2.37-.64l-.64-2.17a2.54,2.54,0,0,1-1.24.34,1,1,0,0,1-.73-.28,1.12,1.12,0,0,1-.26-.79ZM1.82,11.54a2.47,2.47,0,0,0,1.24,1.9,5,5,0,0,0,2.53.62A4.49,4.49,0,0,0,8.3,13.3a2.51,2.51,0,0,0,1-2.16A2.53,2.53,0,0,0,7.1,8.54L5.39,8.13c-.49-.13-.73-.35-.73-.68A.57.57,0,0,1,4.87,7a.91.91,0,0,1,.6-.18,1.11,1.11,0,0,1,.83.32,1.18,1.18,0,0,1,.36.75l2.54-.5A2.86,2.86,0,0,0,8,5.59a4.32,4.32,0,0,0-2.49-.67,3.91,3.91,0,0,0-2.57.79A2.64,2.64,0,0,0,2,7.83C2,9.16,2.73,10,4.3,10.37l1.73.4c.41.1.62.31.62.62a.67.67,0,0,1-.24.51,1.06,1.06,0,0,1-.71.21,1.13,1.13,0,0,1-1.26-1Z" fill="#00d3b4"/></svg>